<svg width="169" height="105" viewBox="0 0 169 105" fill="none" xmlns="http://www.w3.org/2000/svg">
<path d="M169 49.5044C168.083 51.6874 166.385 52.8564 164.202 53.6401C160.534 54.9596 156.918 56.4386 153.32 57.9397C151.119 58.8562 149.091 58.9714 147.115 57.4083C146.846 57.1958 146.163 57.2002 145.854 57.395C142.918 59.2326 140.02 61.1278 137.141 62.9919C139.05 72.4058 134.742 77.5909 125.623 76.9754C123.785 83.8033 121.17 85.8446 113.766 86.1059C113.457 89.3471 112.17 92.1279 109.374 94.0009C106.64 95.8341 103.655 96.0865 100.432 95.1654C99.4836 99.7617 96.9349 102.768 92.3225 103.756C87.6352 104.761 84.3853 101.971 80.9327 99.2613C80.1522 100.16 79.4246 101.037 78.6529 101.869C76.1527 104.566 73.0969 105.607 69.534 104.637C65.9799 103.672 63.8677 101.254 62.9947 97.6584C62.88 97.1934 62.298 96.5425 61.879 96.4938C56.7287 95.9093 54.1535 93.7042 52.9497 88.7051C52.9012 88.4969 52.8263 88.2933 52.7733 88.1073C46.4501 87.3235 43.9102 85.1273 42.8475 79.5613C34.2092 78.2241 30.9109 72.9947 34.1915 65.5247C33.6271 65.1085 33.0495 64.6303 32.4189 64.2318C29.2176 62.1816 26.0295 60.1226 22.7797 58.1566C22.3078 57.8732 21.5406 58.0371 20.9144 58.0592C19.4769 58.1079 17.8983 58.6304 16.6372 58.1965C12.1262 56.6334 7.70344 54.7958 3.28068 52.9759C0.507076 51.8379 -0.687909 49.1015 0.405657 46.2942C5.99254 31.952 11.6103 17.6143 17.2633 3.28989C18.3657 0.495855 21.1129 -0.677552 23.9085 0.394012C28.3225 2.08549 32.7011 3.85667 37.0886 5.61457C39.3904 6.53558 40.4575 8.29348 40.5281 10.7687C40.5413 11.2159 40.9337 11.858 41.3262 12.0528C44.4525 13.6247 47.7024 14.3553 51.2917 14.4218C58.1927 14.5502 65.1642 14.4395 71.8843 16.6047C72.3473 16.7553 73.1983 16.2904 73.6217 15.8608C75.8573 13.607 78.1282 11.2469 81.3913 10.8661C83.962 10.565 86.621 10.8705 89.227 11.0831C91.1363 11.2381 93.0236 11.6764 94.9241 11.9775C96.8246 12.2786 97.8521 13.3458 97.6713 14.838C97.4772 16.4188 96.1853 17.2158 94.1745 16.9147C91.4009 16.5029 88.6317 16.0734 85.8713 15.5863C82.9037 15.0638 80.5093 16.0158 78.4192 18.1368C72.5545 24.0703 66.3283 29.5875 59.564 34.4759C58.3602 35.3483 57.1079 36.1541 55.8997 37.0176C54.3211 38.1423 54.3211 39.0102 55.8688 40.2544C58.7218 42.5437 61.9055 42.6721 65.2347 41.6625C69.5472 40.3563 73.0705 37.7216 76.4261 34.8302C79.989 31.7616 82.5157 31.8502 85.8846 35.1224C92.7943 41.8352 100.983 44.7975 110.574 43.4647C111.941 43.2743 112.994 43.5931 114.084 44.4078C120.649 49.3317 127.255 54.2025 133.913 59.1441C137.441 56.8637 140.942 54.601 144.527 52.2807C139.84 40.3208 135.188 28.4584 130.465 16.4055C129.491 16.742 128.534 16.9545 127.678 17.3796C121.364 20.5146 114.816 20.798 108.082 19.1287C107.496 18.9825 106.878 18.9737 106.296 18.8231C104.863 18.4601 104.114 17.3885 104.29 16.0247C104.462 14.7007 105.507 13.793 106.989 13.9613C109.387 14.2314 111.782 14.5989 114.159 15.0328C116.787 15.511 119.3 15.1612 121.769 14.2579C124.031 13.4299 126.28 12.5709 128.494 11.7428C128.472 7.93481 129.31 6.66842 132.784 5.26919C136.762 3.66627 140.739 2.07663 144.73 0.517995C147.993 -0.757255 150.573 0.385156 151.891 3.70169C153.928 8.82926 155.939 13.9745 157.95 19.111C158.713 21.0637 158.329 22.4054 156.861 23.0341C155.41 23.654 154.149 22.9323 153.381 20.9928C151.291 15.7103 149.219 10.4189 147.067 4.95037C142.534 6.74812 138.071 8.5193 133.415 10.3658C139.086 24.8319 144.712 39.1873 150.409 53.7154C155.022 51.8867 159.489 50.1155 164.061 48.3044C162.121 43.3363 160.238 38.5142 158.355 33.6878C158.197 33.276 157.994 32.8775 157.87 32.4568C157.473 31.0753 158.069 29.7602 159.264 29.2997C160.516 28.817 161.804 29.3085 162.421 30.6369C163.025 31.9343 163.497 33.2981 164.035 34.6265C165.684 38.7002 167.338 42.7739 168.991 46.8476C169 47.7332 169 48.6188 169 49.5044ZM24.1598 53.0911C28.6929 55.9781 33.1024 58.7898 37.4899 61.5839C38.9186 59.919 40.1224 58.4002 41.4408 56.9965C43.8793 54.4062 46.8954 53.525 50.3128 54.4239C53.8052 55.3449 55.9526 57.6828 56.8125 61.2163C56.9271 61.6857 57.0682 62.1462 57.1961 62.6156C59.7669 62.5226 61.9761 63.1824 63.881 64.7941C65.8168 66.4369 66.7163 68.642 67.1043 71.0375C73.0308 71.3741 75.434 73.4331 77.1493 79.5392C85.8008 79.2602 90.228 88.9397 84.0678 95.6791C85.8405 96.7374 87.4764 98.0038 89.3196 98.7388C91.4891 99.6022 93.9496 98.3004 94.955 96.1794C95.9648 94.0496 95.44 91.9773 93.5131 90.4807C92.3842 89.5995 91.2466 88.7272 90.1221 87.8372C88.3583 86.4424 88.0012 85.083 89.0374 83.7856C90.0251 82.5502 91.423 82.5768 93.103 83.8609C93.4954 84.162 93.8835 84.4719 94.2803 84.773C96.5204 86.4734 98.6987 88.2578 101.014 89.843C103.36 91.4504 106.362 90.8216 107.884 88.6032C109.392 86.407 108.871 83.6616 106.614 81.9037C104.572 80.3097 102.509 78.7422 100.48 77.1348C99.0823 76.0278 98.8177 74.5622 99.7349 73.3932C100.67 72.1977 102.032 72.1312 103.527 73.2249C104.193 73.712 104.832 74.2434 105.489 74.7437C107.853 76.5548 110.168 78.4278 112.593 80.1458C114.988 81.8417 118.057 81.2971 119.618 79.061C121.024 77.0463 120.742 73.8227 118.304 72.2154C115.781 70.5549 113.418 68.6199 111.134 66.6362C110.507 66.0959 110.049 64.8783 110.181 64.0812C110.3 63.3683 111.257 62.4385 111.989 62.279C112.743 62.1152 113.806 62.5757 114.498 63.0849C117.915 65.6 121.231 68.2524 124.622 70.7984C127.259 72.7777 130.139 72.4855 131.933 70.1475C133.64 67.9203 133.089 64.7543 130.553 62.8591C124.42 58.2718 118.268 53.711 112.082 49.2033C111.486 48.7694 110.565 48.5303 109.828 48.5967C99.122 49.5708 90.0428 46.0329 82.3966 38.6028C81.3648 37.6021 80.7651 37.5888 79.7112 38.5319C75.9499 41.8972 71.8622 44.7886 66.9985 46.3429C62.1172 47.9015 57.4475 47.6048 53.1922 44.4698C48.474 40.9895 48.6945 36.0789 53.4392 32.6383C58.1618 29.2155 62.6639 25.4916 67.2543 21.8873C67.6026 21.6128 67.8716 21.2364 68.1803 20.9087C68.1362 20.705 68.0877 20.4969 68.0436 20.2932C62.1833 19.9744 56.3274 19.536 50.4627 19.3943C47.4422 19.3191 44.5628 18.9958 41.8112 17.7162C40.7838 17.2379 39.7123 16.8616 38.5658 16.3966C33.7374 28.6709 28.9839 40.7902 24.1598 53.0911ZM18.5906 53.7198C24.2965 39.1651 29.9187 24.8186 35.5894 10.3613C30.9329 8.51487 26.4704 6.75255 21.9286 4.95037C16.2271 19.4918 10.6005 33.8516 4.93425 48.3C9.50695 50.1155 13.9341 51.8734 18.5906 53.7198ZM42.3668 74.4648C42.8166 74.2567 43.9234 74.0707 44.5187 73.4153C46.9263 70.7719 49.2766 68.062 51.4549 65.2236C52.7028 63.5986 52.1692 61.327 50.6083 60.0164C49.0826 58.7367 46.7235 58.6658 45.3565 60.1581C42.9753 62.7528 40.7088 65.4583 38.5173 68.2214C37.5604 69.4302 37.6398 70.9401 38.3586 72.3039C39.0861 73.6766 40.2811 74.3806 42.3668 74.4648ZM62.0598 72.1932C62.0554 70.0191 61.0677 68.4649 59.5552 67.9114C57.8531 67.2871 56.2569 67.5527 55.0354 68.9387C52.888 71.3785 50.7626 73.8449 48.7342 76.3821C47.2923 78.1842 47.6142 80.5931 49.3119 82.0189C50.9698 83.4137 53.2893 83.365 54.8106 81.6823C57.0285 79.2337 59.1451 76.6876 61.2132 74.1105C61.7291 73.4641 61.9143 72.543 62.0598 72.1932ZM82.2247 88.8202C82.0218 87.0446 81.0649 85.5966 79.5304 84.9502C77.9077 84.2683 76.1704 84.6269 74.896 86.0704C72.8588 88.3863 70.8613 90.7375 68.9123 93.1286C67.3116 95.0946 67.4968 97.561 69.2518 99.0399C71.0244 100.537 73.41 100.306 75.1033 98.3801C77.1052 96.1042 79.0718 93.7972 80.9591 91.4282C81.5456 90.6888 81.8102 89.6969 82.2247 88.8202ZM72.2371 80.23C71.9945 78.4411 71.0288 77.0241 69.4811 76.4042C67.8804 75.7622 66.2269 76.0854 64.9878 77.4891C62.9065 79.8403 60.8693 82.2358 58.885 84.6668C57.3108 86.6018 57.4827 88.9309 59.1936 90.4541C60.9045 91.9773 63.4091 91.7958 65.0583 89.9272C67.0955 87.6114 69.1019 85.2645 71.02 82.8469C71.6021 82.1163 71.8402 81.1111 72.2371 80.23Z" fill="#0047A7"/>
</svg>
