<svg width="113" height="126" viewBox="0 0 113 126" fill="none" xmlns="http://www.w3.org/2000/svg">
<path d="M53.5528 0C55.5177 0 57.4825 0 59.4441 0C61.0055 0.278906 62.58 0.492187 64.1217 0.846563C80.1422 4.55766 91.2195 18.4505 91.39 34.9584C91.3966 35.5687 91.6754 36.3202 92.0855 36.7598C95.5854 40.4972 96.8811 44.8416 95.5002 49.7864C94.1389 54.6623 90.9013 57.8681 85.9744 59.0789C84.1408 59.5284 82.1661 59.3808 80.2636 59.5842C79.8896 59.6236 79.3484 59.9452 79.2303 60.2634C77.3573 65.3559 74.1821 69.4017 69.698 72.4336C69.4225 72.6173 69.0781 72.9586 69.0715 73.2342C69.0125 74.9372 69.042 76.6434 69.042 78.458C69.6488 78.458 70.0884 78.458 70.5312 78.458C74.7856 78.458 79.0433 78.3858 83.2945 78.4875C85.4496 78.54 87.6441 78.6909 89.7368 79.17C103.576 82.3298 112.934 94.1489 112.967 108.383C112.98 113.141 112.925 117.895 112.997 122.653C113.02 124.166 112.577 125.272 111.252 126C87.5161 126 63.7805 126 40.0449 126C38.5229 124.884 38.0997 123.985 38.5229 122.765C38.9493 121.534 39.8054 121.078 41.708 121.078C43.9188 121.078 46.1264 121.078 48.3373 121.078C50.207 121.078 52.0734 121.078 53.9464 121.078C53.9464 113.315 53.9464 105.686 53.9464 97.8009C52.3949 99.3759 51.0303 100.784 49.6428 102.172C47.8485 103.966 46.4938 103.881 44.9718 101.889C40.468 95.9995 35.9807 90.0998 31.4442 84.233C31.126 83.8195 30.4896 83.4291 29.9911 83.4159C18.1167 83.1141 7.56097 91.7142 5.41243 103.445C5.12705 105.007 4.97944 106.614 4.95648 108.206C4.89416 112.458 4.9368 116.711 4.9368 121.078C5.49771 121.078 5.93726 121.078 6.37681 121.078C10.4279 121.078 14.4789 121.081 18.53 121.078C19.6026 121.078 20.5998 121.452 20.8688 122.496C21.0689 123.273 20.8721 124.222 20.6162 125.016C20.4817 125.429 19.8388 125.675 19.4255 126C13.5342 126 7.63969 126 1.74843 126C0.882457 125.429 0.0361621 124.815 0.0460027 123.637C0.101766 117.324 -0.209854 110.982 0.324821 104.711C1.54506 90.3328 14.2067 78.7664 28.6035 78.4875C33.2647 78.3956 37.9324 78.4645 42.5969 78.458C43.0266 78.458 43.4596 78.458 43.9648 78.458C43.9648 76.7911 43.9254 75.3145 43.9812 73.8445C44.0107 73.0931 43.7319 72.683 43.1152 72.2695C39.5004 69.8512 36.7286 66.6717 34.8425 62.7408C34.3505 61.717 34.1897 60.2339 33.3959 59.7417C32.5267 59.2036 31.0998 59.6039 29.9189 59.5416C24.8083 59.2725 20.9016 56.9264 18.53 52.4016C16.1584 47.8734 16.1551 43.1058 19.2615 39.0469C21.1443 36.5892 21.6495 34.1512 21.8922 31.2834C23.0501 17.5809 33.3205 5.20078 46.52 1.49625C48.8162 0.849844 51.2042 0.492188 53.5528 0ZM108.057 121.029C108.057 116.55 108.093 112.206 108.05 107.861C107.919 94.2014 96.7926 83.2781 83.1534 83.3634C82.422 83.3667 81.9726 83.5931 81.5297 84.1772C77.0522 90.0867 72.5452 95.97 68.0415 101.86C66.5096 103.865 65.1352 103.973 63.377 102.181C61.9895 100.767 60.6479 99.307 59.2833 97.8666C59.1981 97.942 59.1128 98.0142 59.0275 98.0897C59.0275 105.725 59.0275 113.357 59.0275 121.026C75.3826 121.029 91.6492 121.029 108.057 121.029ZM37.3486 39.6408C37.3486 43.9917 37.3289 48.1688 37.3518 52.3458C37.3978 60.6736 42.7445 67.9908 50.6236 70.5436C58.5256 73.103 67.1952 70.2286 72.0663 63.42C72.5518 62.7408 72.9585 61.9992 73.5195 61.0936C70.9281 61.0936 68.609 61.1264 66.2899 61.0739C65.5157 61.0575 65.168 61.3561 64.8138 62.0156C63.4722 64.5192 61.363 65.8908 58.4961 65.9958C57.64 66.0253 56.7773 66.0253 55.9211 65.9827C52.2046 65.8022 49.3213 62.9475 48.9769 59.1248C48.6719 55.732 51.0959 52.2473 54.5008 51.5386C56.0326 51.2203 57.6793 51.2367 59.2505 51.3811C61.7927 51.6108 63.669 53.025 64.8171 55.2989C65.1746 56.0044 65.5781 56.198 66.3194 56.1881C68.937 56.1455 71.5579 56.1356 74.1722 56.1914C75.071 56.2111 75.4318 55.9289 75.4417 55.0298C75.4843 49.9931 75.5532 44.9531 75.6057 39.9164C75.6057 39.8508 75.5237 39.7884 75.3728 39.5719C69.4979 40.1494 64.0396 39.142 60.0575 34.0003C54.6189 38.5514 48.3471 39.9952 41.5374 39.6506C40.1991 39.5817 38.8542 39.6408 37.3486 39.6408ZM75.6877 34.5975C75.2186 27.2803 72.0532 21.6234 65.6535 18.142C58.9356 14.4933 52.1587 14.8444 45.7984 19.0805C40.3401 22.7161 37.6471 28.0219 37.3289 34.7156C39.6775 34.7156 41.8785 34.6992 44.0763 34.7189C49.7773 34.7714 54.5992 32.7272 58.5912 28.6683C59.5687 27.6773 60.5265 26.6634 61.5467 25.7184C62.5832 24.7603 64.0429 24.7997 64.9745 25.725C65.9061 26.6536 65.929 28.0809 65.004 29.167C64.5874 29.6559 64.1282 30.1087 63.7051 30.5583C66.1882 34.1184 69.7013 35.3063 75.6877 34.5975ZM32.4939 32.8289C33.1597 26.6569 35.6888 21.3216 40.3434 17.1052C45.0341 12.8559 50.5809 10.7559 56.9085 10.8413C62.0518 10.9102 66.7196 12.4983 70.8264 15.5958C76.5536 19.9139 79.7059 25.7381 80.503 32.8256C82.4941 32.9667 84.3901 33.1012 86.4566 33.2489C85.466 22.5389 80.6342 14.1028 71.1872 8.8725C60.1526 2.76281 49.1376 3.47156 38.8575 10.7723C31.2015 16.2094 27.2882 23.9269 26.5796 33.2456C28.6429 33.1012 30.5093 32.97 32.4939 32.8289ZM32.3889 37.9411C28.2755 37.5047 24.9133 38.5777 22.9091 42.2756C21.2132 45.4059 21.5084 48.5461 23.6734 51.3778C25.8809 54.2653 28.9447 54.9511 32.3922 54.5377C32.3889 48.9727 32.3889 43.4963 32.3889 37.9411ZM80.6408 37.9444C80.6408 43.552 80.6408 49.0547 80.6408 54.5672C84.5377 54.9609 87.8081 54.0094 89.891 50.5444C91.6492 47.6208 91.5934 44.5889 89.7598 41.7244C87.6441 38.4136 84.4294 37.5277 80.6408 37.9444ZM64.1249 75.4852C61.5073 75.787 59.0078 76.3055 56.5083 76.3022C53.9858 76.2989 51.4633 75.7837 48.872 75.4819C48.872 76.9945 48.8588 78.5892 48.8851 80.1839C48.8884 80.4431 48.99 80.7712 49.1639 80.9484C51.5683 83.3897 53.9956 85.8113 56.4919 88.3116C59.0209 85.7817 61.4745 83.3339 63.915 80.873C64.0429 80.745 64.1151 80.5088 64.1184 80.3217C64.1315 78.6548 64.1249 76.9912 64.1249 75.4852ZM37.0238 83.3831C40.6517 88.1344 44.0894 92.633 47.3893 96.9511C49.1934 95.1464 50.9614 93.3778 52.759 91.5797C50.2529 89.0597 47.6353 86.4216 45.0013 83.7998C44.7914 83.5898 44.4502 83.4028 44.1681 83.3995C41.8884 83.37 39.6086 83.3831 37.0238 83.3831ZM65.4239 97.1972C68.9272 92.6067 72.3648 88.1081 75.9599 83.393C73.3423 83.393 70.9937 83.37 68.6451 83.4192C68.3466 83.4258 68.0218 83.7605 67.7725 84.0098C65.683 86.0836 63.6296 88.1869 61.5204 90.2409C61.0055 90.743 60.3363 91.0875 59.6409 91.5731C61.6615 93.5616 63.2622 95.1398 64.863 96.7116C65.0073 96.8527 65.168 96.9773 65.4239 97.1972ZM57.3021 61.0936C59.4441 61.0936 60.4806 60.4702 60.6873 59.0527C60.9497 57.2414 59.7262 56.175 57.3808 56.1717C55.0715 56.1684 53.8579 57.0314 53.8743 58.6688C53.8907 60.2667 55.0551 61.0936 57.3021 61.0936Z" fill="#0047A7"/>
<path d="M28.997 126C28.0425 125.334 27.1896 124.596 27.3438 123.263C27.4717 122.148 28.4066 121.229 29.5088 121.098C30.5748 120.973 31.6212 121.6 32.0378 122.62C32.4708 123.677 32.1296 124.842 31.1718 125.537C30.9455 125.701 30.706 125.846 30.4699 126C29.9811 126 29.4891 126 28.997 126Z" fill="#0047A7"/>
<path d="M84.8525 112.711C83.0123 112.711 81.1688 112.724 79.3286 112.708C77.6197 112.691 76.5798 111.736 76.5897 110.234C76.5962 108.737 77.6361 107.799 79.3614 107.792C83.0451 107.779 86.7255 107.779 90.4092 107.792C92.1018 107.799 93.2138 108.764 93.2433 110.201C93.2728 111.69 92.1379 112.695 90.3797 112.704C88.5362 112.721 86.6927 112.711 84.8525 112.711Z" fill="#0047A7"/>
</svg>
