<svg width="30" height="31" viewBox="0 0 30 31" fill="none" xmlns="http://www.w3.org/2000/svg">
<path d="M19.6875 15.6001C19.6875 16.8433 19.1936 18.0356 18.3146 18.9147C17.4355 19.7937 16.2432 20.2876 15 20.2876C13.7568 20.2876 12.5645 19.7937 11.6854 18.9147C10.8064 18.0356 10.3125 16.8433 10.3125 15.6001C10.3125 15.3329 10.3406 15.072 10.3891 14.8188H8.75V21.0642C8.75 21.4985 9.10156 21.8501 9.53594 21.8501H20.4656C20.6738 21.8497 20.8733 21.7667 21.0204 21.6193C21.1674 21.472 21.25 21.2723 21.25 21.0642V14.8188H19.6109C19.6594 15.072 19.6875 15.3329 19.6875 15.6001ZM15 18.7251C15.4105 18.725 15.8169 18.644 16.1961 18.4869C16.5753 18.3297 16.9198 18.0994 17.21 17.809C17.5002 17.5187 17.7304 17.1741 17.8874 16.7948C18.0444 16.4155 18.1251 16.009 18.125 15.5985C18.1249 15.1881 18.0439 14.7816 17.8868 14.4024C17.7296 14.0232 17.4993 13.6787 17.2089 13.3885C16.9186 13.0983 16.574 12.8682 16.1947 12.7112C15.8154 12.5542 15.4089 12.4734 14.9984 12.4735C14.1694 12.4737 13.3745 12.8033 12.7884 13.3896C12.2024 13.976 11.8732 14.7711 11.8734 15.6001C11.8736 16.4291 12.2032 17.2241 12.7895 17.8101C13.3759 18.3962 14.171 18.7253 15 18.7251ZM18.75 12.3188H20.6234C20.7479 12.3188 20.8673 12.2695 20.9554 12.1816C21.0436 12.0938 21.0933 11.9746 21.0937 11.8501V9.97666C21.0937 9.85192 21.0442 9.7323 20.956 9.6441C20.8678 9.5559 20.7482 9.50635 20.6234 9.50635H18.75C18.6253 9.50635 18.5056 9.5559 18.4174 9.6441C18.3292 9.7323 18.2797 9.85192 18.2797 9.97666V11.8501C18.2812 12.1079 18.4922 12.3188 18.75 12.3188ZM15 0.600098C11.0218 0.600098 7.20644 2.18045 4.3934 4.9935C1.58035 7.80654 0 11.6219 0 15.6001C0 19.5783 1.58035 23.3937 4.3934 26.2067C7.20644 29.0197 11.0218 30.6001 15 30.6001C16.9698 30.6001 18.9204 30.2121 20.7403 29.4583C22.5601 28.7045 24.2137 27.5996 25.6066 26.2067C26.9995 24.8138 28.1044 23.1602 28.8582 21.3403C29.612 19.5205 30 17.5699 30 15.6001C30 13.6303 29.612 11.6797 28.8582 9.85985C28.1044 8.03996 26.9995 6.38637 25.6066 4.9935C24.2137 3.60062 22.5601 2.49573 20.7403 1.7419C18.9204 0.988084 16.9698 0.600098 15 0.600098ZM22.8125 21.6767C22.8125 22.6313 22.0312 23.4126 21.0766 23.4126H8.92344C7.96875 23.4126 7.1875 22.6313 7.1875 21.6767V9.52353C7.1875 8.56885 7.96875 7.7876 8.92344 7.7876H21.0766C22.0312 7.7876 22.8125 8.56885 22.8125 9.52353V21.6767Z" fill="white"/>
</svg>
