<svg width="30" height="31" viewBox="0 0 30 31" fill="none" xmlns="http://www.w3.org/2000/svg">
<path d="M19.6875 15.6C19.6875 16.8432 19.1936 18.0355 18.3146 18.9145C17.4355 19.7936 16.2432 20.2875 15 20.2875C13.7568 20.2875 12.5645 19.7936 11.6854 18.9145C10.8064 18.0355 10.3125 16.8432 10.3125 15.6C10.3125 15.3328 10.3406 15.0718 10.3891 14.8187H8.75V21.064C8.75 21.4984 9.10156 21.85 9.53594 21.85H20.4656C20.6738 21.8496 20.8733 21.7666 21.0204 21.6192C21.1674 21.4719 21.25 21.2722 21.25 21.064V14.8187H19.6109C19.6594 15.0718 19.6875 15.3328 19.6875 15.6ZM15 18.725C15.4105 18.7249 15.8169 18.6439 16.1961 18.4867C16.5753 18.3296 16.9198 18.0992 17.21 17.8089C17.5002 17.5186 17.7304 17.1739 17.8874 16.7947C18.0444 16.4154 18.1251 16.0089 18.125 15.5984C18.1249 15.1879 18.0439 14.7815 17.8868 14.4023C17.7296 14.0231 17.4993 13.6786 17.2089 13.3884C16.9186 13.0982 16.574 12.868 16.1947 12.711C15.8154 12.5541 15.4089 12.4733 14.9984 12.4734C14.1694 12.4736 13.3745 12.8031 12.7884 13.3895C12.2024 13.9758 11.8732 14.771 11.8734 15.6C11.8736 16.429 12.2032 17.224 12.7895 17.81C13.3759 18.3961 14.171 18.7252 15 18.725ZM18.75 12.3187H20.6234C20.7479 12.3187 20.8673 12.2694 20.9554 12.1815C21.0436 12.0937 21.0933 11.9744 21.0937 11.85V9.97654C21.0937 9.8518 21.0442 9.73218 20.956 9.64398C20.8678 9.55578 20.7482 9.50622 20.6234 9.50622H18.75C18.6253 9.50622 18.5056 9.55578 18.4174 9.64398C18.3292 9.73218 18.2797 9.8518 18.2797 9.97654V11.85C18.2812 12.1078 18.4922 12.3187 18.75 12.3187ZM15 0.599976C11.0218 0.599976 7.20644 2.18033 4.3934 4.99337C1.58035 7.80642 0 11.6217 0 15.6C0 19.5782 1.58035 23.3935 4.3934 26.2066C7.20644 29.0196 11.0218 30.6 15 30.6C16.9698 30.6 18.9204 30.212 20.7403 29.4582C22.5601 28.7043 24.2137 27.5995 25.6066 26.2066C26.9995 24.8137 28.1044 23.1601 28.8582 21.3402C29.612 19.5203 30 17.5698 30 15.6C30 13.6301 29.612 11.6796 28.8582 9.85972C28.1044 8.03984 26.9995 6.38625 25.6066 4.99337C24.2137 3.60049 22.5601 2.4956 20.7403 1.74178C18.9204 0.987962 16.9698 0.599976 15 0.599976ZM22.8125 21.6765C22.8125 22.6312 22.0312 23.4125 21.0766 23.4125H8.92344C7.96875 23.4125 7.1875 22.6312 7.1875 21.6765V9.52341C7.1875 8.56873 7.96875 7.78748 8.92344 7.78748H21.0766C22.0312 7.78748 22.8125 8.56873 22.8125 9.52341V21.6765Z" fill="#0047A7"/>
</svg>
