<svg width="133" height="120" viewBox="0 0 133 120" fill="none" xmlns="http://www.w3.org/2000/svg">
<g clip-path="url(#clip0_21_56)">
<path d="M105.726 120C103.628 118.303 103.498 117.246 105.118 114.945C111.175 106.332 117.193 97.6831 123.316 89.1161C126.39 84.813 127.863 80.1159 127.831 74.8116C127.756 62.1023 127.808 49.393 127.805 36.6836C127.805 36.2044 127.824 35.7186 127.772 35.2427C127.58 33.4735 126.234 32.1835 124.509 32.085C122.782 31.9898 121.299 33.1157 120.941 34.8586C120.82 35.4495 120.807 36.0731 120.807 36.6803C120.801 46.813 120.762 56.9457 120.817 67.0783C120.846 72.4647 119.051 77.0502 115.394 80.9431C111.523 85.0624 107.707 89.2343 103.794 93.3143C103.189 93.9445 102.219 94.4959 101.38 94.5616C99.4995 94.706 98.2959 92.5429 99.2132 90.8656C99.4995 90.3405 99.9224 89.8777 100.336 89.4378C104.151 85.325 107.987 81.2319 111.793 77.1125C113.364 75.4123 113.566 73.2557 112.388 71.4767C111.276 69.7961 109.038 69.0248 107.375 70.1277C102.287 73.4986 96.9296 76.5217 92.5899 80.9365C87.5151 86.0964 84.7499 92.428 83.3901 99.4917C82.245 105.443 81.0089 111.374 79.6751 117.285C79.4506 118.273 78.53 119.104 77.9314 120.006C77.4109 120.006 76.8937 120.006 76.3732 120.006C74.5287 118.858 74.2261 118.109 74.7043 115.877C76.2919 108.466 77.6777 101.002 79.5254 93.6589C81.5326 85.6762 85.9991 79.1213 92.437 74.0796C96.1195 71.1977 100.053 68.6309 103.956 66.0477C107.636 63.6154 111.516 63.9043 115.023 66.6516C115.147 66.7501 115.28 66.8322 115.606 67.0586C115.606 66.3923 115.606 65.9328 115.606 65.4765C115.606 55.6557 115.593 45.8349 115.612 36.0107C115.619 31.8159 117.831 28.5663 121.448 27.319C126.315 25.6385 131.419 28.4646 132.75 33.5719C132.811 33.8148 132.915 34.0479 133 34.2875C133 49.0549 133 63.8222 133 78.5896C132.928 78.8325 132.815 79.0721 132.785 79.3216C132.275 83.9989 130.407 88.1019 127.717 91.8996C121.556 100.598 115.449 109.339 109.285 118.037C108.751 118.792 107.954 119.353 107.281 120.006C106.767 120 106.246 120 105.726 120Z" fill="#0047A7"/>
<path d="M55.0751 120C53.9853 119.255 53.4648 118.224 53.1948 116.908C51.8057 110.074 50.4232 103.234 48.8649 96.4359C46.8903 87.8296 42.0204 81.1959 34.8245 76.2527C32.0724 74.362 29.304 72.4911 26.5356 70.6234C24.4666 69.2284 22.3098 69.4089 20.924 71.06C19.4666 72.793 19.5154 75.2614 21.1354 77.0207C24.9676 81.1795 28.8355 85.3021 32.684 89.4445C33.0678 89.8548 33.4517 90.2848 33.7412 90.7607C34.3756 91.8012 34.1446 93.1864 33.2663 93.9807C32.414 94.7521 31.103 94.8571 30.1465 94.1908C29.7594 93.9216 29.4146 93.5803 29.0893 93.2323C25.3157 89.1983 21.5779 85.1315 17.775 81.127C13.9981 77.1455 12.1438 72.4681 12.1861 66.9307C12.261 56.8407 12.2089 46.7508 12.2024 36.6608C12.2024 36.0535 12.1861 35.4299 12.0625 34.839C11.7079 33.1453 10.2798 32.0359 8.60447 32.0786C6.88358 32.1213 5.47823 33.3882 5.24726 35.1377C5.18545 35.6104 5.20497 36.0962 5.20497 36.5754C5.20172 49.462 5.23425 62.3453 5.18871 75.2318C5.17244 80.2571 6.56152 84.7638 9.50233 88.811C10.7808 90.5703 12.0267 92.3559 13.2564 94.1514C14.356 95.7565 14.1998 97.2434 12.8921 98.192C11.6201 99.1143 10.0944 98.7598 9.02412 97.1416C6.74369 93.7017 4.35917 90.3143 2.33899 86.7234C0.634358 83.6938 0.0390398 80.2374 0.0325336 76.7483C2.49082e-06 63.1199 -0.0130099 49.4915 0.0260273 35.8631C0.0390398 30.7197 3.8712 26.8005 8.6858 26.8169C13.6435 26.8334 17.3813 30.7 17.3976 35.9354C17.4269 45.7628 17.4074 55.5902 17.4074 65.4209C17.4074 65.8902 17.4074 66.3596 17.4074 66.8454C18.6501 66.1824 19.7626 65.4373 20.9793 64.9679C23.3606 64.0488 25.8687 64.0816 27.9832 65.4767C32.7555 68.6244 37.6092 71.7164 42.0074 75.3566C48.9528 81.1073 52.7784 88.8504 54.5448 97.6865C55.7582 103.756 57.0432 109.812 58.3087 115.874C58.7739 118.109 58.4844 118.858 56.6398 120.007C56.1161 120 55.5956 120 55.0751 120Z" fill="#0047A7"/>
<path d="M25.7256 120C25.0782 119.383 24.3397 118.838 23.803 118.139C22.6676 116.662 21.6071 115.119 20.5694 113.57C19.6162 112.145 19.8212 110.602 21.0053 109.733C22.2025 108.853 23.7086 109.112 24.7399 110.494C26.0118 112.198 27.2415 113.937 28.4094 115.716C29.4666 117.328 29.1121 118.526 27.2871 120.003C26.7633 120 26.2428 120 25.7256 120Z" fill="#0047A7"/>
<path d="M73.6764 44.1478C72.0986 47.7716 70.5989 51.2443 69.0732 54.7072C68.3966 56.2434 67.4206 56.8211 66.0511 56.6044C64.932 56.4272 64.3562 55.6525 63.9398 54.6908C62.6223 51.6546 61.3048 48.6184 59.984 45.5822C59.7954 45.149 59.5872 44.7255 59.2553 44.0034C56.0055 45.0045 52.6385 45.7135 49.5546 47.0823C46.3145 48.52 44.4732 51.4445 44.1544 55.0256C43.9169 57.7007 44.1089 60.4152 44.1089 63.2118C45.6736 63.2118 47.2937 63.2118 49.1056 63.2118C49.1056 61.8759 49.1024 60.54 49.1056 59.2073C49.1089 58.6822 49.0796 58.1537 49.1479 57.6384C49.3399 56.2204 50.5045 55.2094 51.8122 55.2751C53.1395 55.344 54.2065 56.3812 54.2716 57.8583C54.3464 59.6012 54.2878 61.3474 54.2878 63.3103C55.0751 63.3103 55.7908 63.2972 56.5032 63.3136C58.39 63.3562 59.4831 64.2687 59.5286 65.8279C59.5774 67.4362 58.4583 68.5161 56.5455 68.5391C52.9085 68.5818 49.2748 68.5522 45.6378 68.5522C44.4244 68.5522 43.2143 68.5719 42.0009 68.5489C39.7465 68.5063 38.7673 67.5216 38.7543 65.2469C38.7347 62.063 38.7478 58.8791 38.7478 55.518C37.5734 55.518 36.4641 55.518 35.3548 55.518C32.6287 55.518 29.8993 55.5377 27.1732 55.5081C25.6117 55.4917 24.561 54.809 24.4243 53.4599C24.0828 50.1119 23.9038 46.7311 25.153 43.5111C26.7796 39.3195 29.9546 36.9135 34.2259 35.873C35.319 35.6071 36.4088 35.338 37.5051 35.0852C38.5428 34.8456 38.4322 34.3467 37.8206 33.7329C37.209 33.1191 36.5291 32.5644 35.9729 31.9013C34.6033 30.2667 33.6436 28.3892 33.4777 26.2458C33.1849 22.4219 32.7946 18.552 33.9234 14.8068C36.1746 7.33611 45.2312 4.30649 51.5585 8.83287C51.8057 9.01012 52.053 9.1808 52.4336 9.44667C55.3061 3.53185 59.8897 0.00986818 66.4805 2.10834e-05C73.0875 -0.00982601 77.7265 3.43009 80.625 9.44339C82.9347 7.64465 85.4559 6.63368 88.3414 6.71246C94.2165 6.87658 98.9562 11.0616 99.5516 17.006C99.8606 20.1111 99.75 23.2884 99.5093 26.4067C99.2913 29.259 97.7266 31.5403 95.6088 33.4342C95.2607 33.7427 95.0786 34.2417 94.8216 34.6552C95.2314 34.8423 95.6316 35.0655 96.0545 35.2165C98.4845 36.0798 101.133 36.5656 103.309 37.8621C107.086 40.1138 108.68 43.8688 108.794 48.2508C108.829 49.6031 108.82 50.9588 108.797 52.3144C108.758 54.5136 107.766 55.5114 105.596 55.518C101.878 55.5311 98.1625 55.5212 94.262 55.5212C94.262 56.5388 94.262 57.4775 94.262 58.4196C94.262 60.7336 94.2848 63.051 94.2555 65.3651C94.2262 67.4855 93.2471 68.5227 91.1521 68.5391C86.1748 68.5752 81.1975 68.5752 76.217 68.5391C74.301 68.526 73.1851 67.4494 73.2209 65.841C73.2567 64.2819 74.353 63.3595 76.2333 63.3136C76.7538 63.3004 77.271 63.3169 77.7915 63.307C78.0453 63.3037 78.2958 63.2775 78.7187 63.2479C78.7187 61.4623 78.6634 59.7325 78.7317 58.0027C78.813 55.9512 80.6055 54.7302 82.3199 55.5048C83.4324 56.007 83.8879 56.9523 83.9041 58.1373C83.9171 58.9677 83.9074 59.7982 83.9074 60.6286C83.9074 61.4558 83.9074 62.2829 83.9074 63.2085C85.599 63.2085 87.2223 63.2085 89.0408 63.2085C88.9204 58.2719 90.0883 53.0693 86.0187 49.0386C84.854 47.8832 83.3511 46.8853 81.8221 46.3339C79.2327 45.405 76.4968 44.8798 73.6764 44.1478ZM56.6366 21.0925C56.6366 22.2249 56.578 23.3541 56.6464 24.4799C56.9066 28.7765 60.0524 32.4626 64.2716 33.4769C68.4519 34.4813 72.8631 32.5381 75.0817 28.8323C76.705 26.1178 76.5293 23.1571 76.4545 20.1997C76.448 19.9141 76.0544 19.5596 75.7584 19.3758C74.5124 18.5946 73.2112 17.902 71.9782 17.1011C71.3601 16.6974 70.9568 16.7565 70.4005 17.2292C68.4161 18.913 66.1389 20.1078 63.5852 20.5115C61.3438 20.8627 59.0504 20.9021 56.6366 21.0925ZM29.5512 50.276C32.8922 50.276 36.1746 50.299 39.4569 50.2366C39.7822 50.2301 40.2214 49.7541 40.4003 49.3931C41.913 46.324 44.1251 43.9214 47.1343 42.3524C48.6144 41.581 50.2247 41.069 51.8578 40.4092C50.5695 40.0613 49.3269 39.7626 48.1069 39.3917C46.5357 38.9157 46.4186 37.4912 46.2397 36.2242C45.2507 36.2242 44.3659 36.2242 43.494 36.2242C43.2631 38.6893 42.8076 39.221 40.524 39.7659C39.0113 40.1269 37.4953 40.4913 35.9826 40.8458C31.0542 42.011 28.9949 44.952 29.5512 50.276ZM81.1032 40.5077C81.7506 40.7211 82.2678 40.9049 82.7948 41.0624C86.692 42.2277 89.8963 44.4629 91.7734 48.0768C92.7884 50.0298 93.9757 50.4204 95.8983 50.3121C98.426 50.1677 100.963 50.276 103.472 50.276C104.125 45.208 102.043 42.0767 97.3752 40.918C95.9927 40.5733 94.6134 40.2057 93.2145 39.9398C91.1 39.5394 89.3238 38.8534 89.5678 36.2045C88.5365 36.2045 87.655 36.2045 86.7213 36.2045C86.8222 40.2188 83.4097 39.4212 81.1032 40.5077ZM56.6724 15.5814C61.5455 15.9556 65.1467 15.5847 68.7869 11.6163C69.8312 10.4773 70.8787 10.4347 72.3068 11.2388C73.6048 11.9708 74.8768 12.7487 76.2528 13.5628C75.4851 8.47509 70.7063 4.73976 65.8038 5.23868C60.3321 5.79668 56.3959 10.2213 56.6724 15.5814ZM51.2787 21.3551C47.1213 23.1407 42.8694 23.3376 38.4778 23.226C38.4778 23.7578 38.4615 24.1385 38.481 24.5193C38.6469 28.0774 41.2559 30.7853 44.6196 30.9035C48.1557 31.0282 50.8721 28.6419 51.2625 24.9755C51.3796 23.8595 51.2787 22.7173 51.2787 21.3551ZM94.5125 23.2195C90.1241 23.3639 85.8983 23.0915 81.7994 21.3945C81.5391 24.7589 81.5619 27.841 84.6003 29.84C86.8189 31.3007 89.1774 31.363 91.4416 29.9779C93.8521 28.5008 94.737 26.2031 94.5125 23.2195ZM50.6834 15.8309C49.6554 13.0835 46.7537 11.5047 43.751 12.0233C40.9078 12.5157 38.6664 15.0891 38.6567 17.9447C42.8206 18.1252 46.9098 17.9217 50.6834 15.8309ZM82.3459 15.8309C86.1553 17.9217 90.2574 18.1515 94.467 17.9283C94.1124 14.7543 91.9881 12.4238 89.1774 12.0135C86.1748 11.5704 83.4259 13.0901 82.3459 15.8309ZM69.6035 38.8829C67.4304 38.8829 65.5078 38.8829 63.364 38.8829C63.5234 42.0242 65.4395 44.4629 66.5488 47.2562C67.5052 44.4039 69.636 42.0438 69.6035 38.8829ZM53.4778 32.6103C53.5592 32.4725 53.6437 32.3313 53.7251 32.1935C53.1135 32.7318 52.4856 33.257 51.8903 33.8182C51.4284 34.2581 51.3048 34.8029 52.0367 35.0065C54.0178 35.5612 56.0283 36.0207 57.1961 36.3128C56.2853 35.4069 54.8832 34.0086 53.4778 32.6103ZM79.301 32.1902C79.4051 32.3149 79.5092 32.4429 79.61 32.5677C78.1884 33.9889 76.7701 35.4102 75.8592 36.3227C76.9848 36.0371 78.8943 35.548 80.8104 35.0688C81.7213 34.8391 81.7115 34.3664 81.126 33.7985C80.5437 33.234 79.9093 32.7219 79.301 32.1902Z" fill="#0047A7"/>
<path d="M17.1439 101.609C18.5655 101.619 19.7008 102.754 19.7073 104.166C19.7138 105.604 18.4679 106.831 17.0463 106.792C15.6735 106.752 14.5414 105.538 14.5642 104.127C14.5869 102.686 15.7028 101.599 17.1439 101.609Z" fill="#0047A7"/>
<path d="M66.5228 63.3431C67.9184 63.3529 69.096 64.5411 69.0797 65.9329C69.0667 67.318 67.8565 68.5128 66.4805 68.4997C65.1012 68.4866 63.9105 67.2721 63.9203 65.8935C63.9366 64.4952 65.1239 63.3332 66.5228 63.3431Z" fill="#0047A7"/>
</g>
<defs>
<clipPath id="clip0_21_56">
<rect width="133" height="120" fill="white"/>
</clipPath>
</defs>
</svg>
